<svg width="300" height="90" viewBox="0 0 300 90" fill="none" xmlns="http://www.w3.org/2000/svg">
<rect width="300" height="90" rx="12" fill="#FEE500"/>
<path fill-rule="evenodd" clip-rule="evenodd" d="M107.976 49.1277C109.482 47.5503 110.373 45.5966 110.373 43.481C110.373 38.2448 104.917 34 98.1863 34C91.456 34 86 38.2448 86 43.481C86 46.7738 88.1577 49.6746 91.433 51.3742L89.0625 56L93.6404 52.2802C95.0451 52.7199 96.5794 52.9619 98.1863 52.9619C102.175 52.9619 105.716 51.4711 107.939 49.1667L108.068 49.1651L107.976 49.1277Z" fill="black"/>
<path d="M126.24 39.032H128.32C128.32 43.608 127.232 47.416 121.712 50.216L120.576 48.6C125.184 46.28 126.24 43.448 126.24 39.288V39.032ZM121.488 39.032H127.504V40.712H121.488V39.032ZM126.288 42.664V44.296L120.976 44.808L120.72 42.984L126.288 42.664ZM130.112 37.592H132.256V52.408H130.112V37.592ZM131.696 43.256H134.304V45H131.696V43.256ZM140.959 39.032H143.039C143.039 43.608 141.951 47.416 136.431 50.216L135.295 48.6C139.903 46.28 140.959 43.448 140.959 39.288V39.032ZM136.207 39.032H142.223V40.712H136.207V39.032ZM141.007 42.664V44.296L135.695 44.808L135.439 42.984L141.007 42.664ZM144.831 37.592H146.975V52.408H144.831V37.592ZM146.415 43.256H149.023V45H146.415V43.256ZM155.71 45.944H157.838V49.32H155.71V45.944ZM156.782 38.36C159.95 38.36 162.318 39.976 162.318 42.44C162.318 44.936 159.95 46.536 156.782 46.536C153.614 46.536 151.246 44.936 151.246 42.44C151.246 39.976 153.614 38.36 156.782 38.36ZM156.782 40.04C154.75 40.04 153.342 40.936 153.342 42.44C153.342 43.976 154.75 44.856 156.782 44.856C158.814 44.856 160.222 43.976 160.222 42.44C160.222 40.936 158.814 40.04 156.782 40.04ZM150.094 48.984H163.502V50.712H150.094V48.984ZM168.797 49.064H182.205V50.792H168.797V49.064ZM174.413 46.264H176.541V49.768H174.413V46.264ZM170.301 38.568H180.701V43.496H172.445V45.992H170.333V41.832H178.589V40.248H170.301V38.568ZM170.333 45.144H181.037V46.856H170.333V45.144ZM184.875 38.968H194.267V40.648H184.875V38.968ZM183.515 48.76H196.907V50.488H183.515V48.76ZM193.147 38.968H195.259V40.728C195.259 42.808 195.259 44.824 194.731 47.864L192.603 47.688C193.147 44.84 193.147 42.728 193.147 40.728V38.968ZM208.394 37.624H210.538V48.264H208.394V37.624ZM200.666 50.472H210.906V52.168H200.666V50.472ZM200.666 47.192H202.794V51.16H200.666V47.192ZM202.474 38.552C204.746 38.552 206.49 40.12 206.49 42.312C206.49 44.488 204.746 46.072 202.474 46.072C200.202 46.072 198.442 44.488 198.442 42.312C198.442 40.12 200.202 38.552 202.474 38.552ZM202.474 40.392C201.37 40.392 200.522 41.096 200.522 42.312C200.522 43.512 201.37 44.216 202.474 44.216C203.562 44.216 204.41 43.512 204.41 42.312C204.41 41.096 203.562 40.392 202.474 40.392Z" fill="black" fill-opacity="0.85"/>
</svg>
